<svg width="53" height="19" viewBox="0 0 53 19" fill="none" xmlns="http://www.w3.org/2000/svg">
<path d="M7.00201 18.5982C9.31925 18.5982 11.2083 17.3255 12.1402 15.4673V18.3437H13.6263V12.1328C13.6263 8.51821 10.8053 5.71821 7.20351 5.71821C3.55134 5.71821 0.805908 8.62003 0.805908 12.1328C0.805908 15.6964 3.47577 18.5982 7.00201 18.5982ZM7.20351 17.0964C4.50846 17.0964 2.36753 14.8564 2.36753 12.1582C2.36753 9.46003 4.50846 7.22003 7.20351 7.22003C9.92375 7.22003 12.0647 9.46003 12.0647 12.1582C12.0647 14.8564 9.92375 17.0964 7.20351 17.0964Z" fill="#DAC5A7"/>
<path d="M20.1121 18.3437V10.8091C20.1121 8.69639 21.2708 7.3473 23.1346 7.3473C23.8399 7.3473 24.5199 7.52549 25.1244 7.88185V6.27821C24.4947 5.97276 23.7643 5.82003 23.0087 5.82003C20.1877 5.82003 18.5505 7.85639 18.5505 10.7328V18.3437H20.1121Z" fill="#DAC5A7"/>
<path d="M29.0238 3.02003C29.6535 3.02003 30.1321 2.51094 30.1321 1.84912C30.1321 1.1873 29.6535 0.678214 29.0238 0.678214C28.3942 0.678214 27.8904 1.1873 27.8904 1.84912C27.8904 2.51094 28.3942 3.02003 29.0238 3.02003ZM28.243 5.99821V18.3437H29.8047V5.99821H28.243Z" fill="#DAC5A7"/>
<path d="M37.124 18.3437V12.82H38.9123C39.0383 13.2018 39.2398 13.5837 39.5672 13.9146L43.9246 18.3437H45.9648L40.6503 12.9218C40.3984 12.6673 40.2473 12.4128 40.2473 12.1582C40.2473 11.8782 40.3984 11.6491 40.6503 11.3946L45.99 5.99821H44.0254L39.6176 10.4528C39.3153 10.7582 39.0887 11.0891 38.9627 11.42H37.124V0.296394H35.5624V18.3437H37.124Z" fill="#DAC5A7"/>
<path d="M51.0166 18.5473C51.6462 18.5473 52.15 18.0382 52.15 17.3764C52.15 16.74 51.6462 16.2564 51.0166 16.2564C50.3869 16.2564 49.8831 16.74 49.8831 17.3764C49.8831 18.0382 50.3869 18.5473 51.0166 18.5473Z" fill="#DAC5A7"/>
</svg>
