<svg xmlns="http://www.w3.org/2000/svg" xmlns:xlink="http://www.w3.org/1999/xlink"><symbol fill="currentColor" id="sprite-arrow" viewBox="0 0 16 18"><path d="M15.144 7.894a.543.543 0 0 1-.788 0L8.562 2.109V17.25a.562.562 0 1 1-1.125 0V2.11L1.644 7.893a.557.557 0 1 1-.788-.788l6.75-6.75a.544.544 0 0 1 .788 0l6.75 6.75a.543.543 0 0 1 0 .788"/></symbol><use xlink:href="#sprite-arrow" width="16" height="18" y="0"/><view id="sprite-arrow-view" viewBox="0 0 16 18"/><symbol fill="currentColor" id="sprite-check" viewBox="0 0 18 12"><path d="M6.75 11.813a.54.54 0 0 1-.394-.17l-5.25-5.25a.557.557 0 0 1 .788-.787l4.856 4.847L16.856.356a.557.557 0 0 1 .788.788l-10.5 10.5a.54.54 0 0 1-.394.168"/></symbol><use xlink:href="#sprite-check" width="18" height="12" y="18"/><view id="sprite-check-view" viewBox="0 18 18 12"/><symbol fill="currentColor" id="sprite-info" viewBox="0 0 20 20"><path d="M11.313 14.5a.563.563 0 0 1-.563.563 1.313 1.313 0 0 1-1.312-1.313V10a.187.187 0 0 0-.188-.187.562.562 0 1 1 0-1.126A1.313 1.313 0 0 1 10.563 10v3.75a.19.19 0 0 0 .187.188.563.563 0 0 1 .563.562M9.625 6.813a.938.938 0 1 0 0-1.876.938.938 0 0 0 0 1.875M19.563 10A9.562 9.562 0 1 1 10 .438 9.574 9.574 0 0 1 19.563 10m-1.125 0A8.437 8.437 0 1 0 10 18.438 8.447 8.447 0 0 0 18.438 10"/></symbol><use xlink:href="#sprite-info" width="20" height="20" y="30"/><view id="sprite-info-view" viewBox="0 30 20 20"/><symbol fill="currentColor" id="sprite-link" viewBox="0 0 18 18"><path d="M9.762 14.604a.56.56 0 0 1 0 .795l-.933.932a5.064 5.064 0 0 1-7.16-7.16l2.26-2.262a5.06 5.06 0 0 1 6.946-.205.564.564 0 1 1-.75.844 3.94 3.94 0 0 0-5.4.16L2.464 9.966a3.94 3.94 0 0 0 5.57 5.57l.932-.932a.56.56 0 0 1 .796 0m6.57-12.938a5.07 5.07 0 0 0-7.161 0l-.933.932a.563.563 0 1 0 .796.796l.932-.938a3.939 3.939 0 1 1 5.57 5.57l-2.261 2.269a3.94 3.94 0 0 1-5.4.16.565.565 0 0 0-.75.844 5.063 5.063 0 0 0 6.944-.205l2.26-2.262a5.064 5.064 0 0 0 .002-7.163z"/></symbol><use xlink:href="#sprite-link" width="18" height="18" y="50"/><view id="sprite-link-view" viewBox="0 50 18 18"/><symbol fill="currentColor" id="sprite-mail" viewBox="0 0 20 16"><path d="M19 .688H1a.563.563 0 0 0-.562.562V14a1.313 1.313 0 0 0 1.312 1.313h16.5A1.313 1.313 0 0 0 19.563 14V1.25A.563.563 0 0 0 19 .688m-1.444 1.125L10 8.74 2.444 1.813zm.694 12.375H1.75A.19.19 0 0 1 1.563 14V2.525l8.053 7.387a.57.57 0 0 0 .768 0l8.054-7.387V14a.19.19 0 0 1-.188.188"/></symbol><use xlink:href="#sprite-mail" width="20" height="16" y="68"/><view id="sprite-mail-view" viewBox="0 68 20 16"/><symbol fill="currentColor" id="sprite-minus" viewBox="0 0 18 2"><path d="M17.25 1.563H.75a.562.562 0 1 1 0-1.125h16.5a.562.562 0 1 1 0 1.125"/></symbol><use xlink:href="#sprite-minus" width="18" height="2" y="84"/><view id="sprite-minus-view" viewBox="0 84 18 2"/><symbol fill="currentColor" id="sprite-phone" viewBox="0 0 19 19"><path d="M13.5 18.813C6.16 18.813.188 12.84.188 5.5A5.07 5.07 0 0 1 4.613.475a1.31 1.31 0 0 1 1.359.787L7.856 5.66a1.32 1.32 0 0 1-.103 1.238l-1.565 2.38a.2.2 0 0 0-.01.178 7.33 7.33 0 0 0 3.394 3.385.18.18 0 0 0 .178-.02l2.353-1.565a1.3 1.3 0 0 1 1.238-.112l4.397 1.884a1.31 1.31 0 0 1 .787 1.36 5.07 5.07 0 0 1-5.025 4.425M4.772 1.59h-.019a3.956 3.956 0 0 0-3.44 3.91A12.197 12.197 0 0 0 13.5 17.688a3.956 3.956 0 0 0 3.91-3.441.19.19 0 0 0-.113-.188L12.9 12.175a.2.2 0 0 0-.178.019l-2.344 1.565a1.33 1.33 0 0 1-1.294.094 8.5 8.5 0 0 1-3.918-3.91A1.31 1.31 0 0 1 5.25 8.66l1.556-2.38a.18.18 0 0 0 .019-.179L4.941 1.703a.19.19 0 0 0-.17-.112"/></symbol><use xlink:href="#sprite-phone" width="19" height="19" y="86"/><view id="sprite-phone-view" viewBox="0 86 19 19"/><symbol fill="currentColor" id="sprite-plus" viewBox="0 0 18 18"><path d="M17.813 9a.563.563 0 0 1-.563.563H9.563v7.687a.562.562 0 1 1-1.126 0V9.563H.75a.562.562 0 1 1 0-1.126h7.688V.75a.562.562 0 1 1 1.124 0v7.688h7.688a.56.56 0 0 1 .563.562"/></symbol><use xlink:href="#sprite-plus" width="18" height="18" y="105"/><view id="sprite-plus-view" viewBox="0 105 18 18"/><symbol fill="currentColor" id="sprite-s-behance" viewBox="0 0 22 14"><path d="M13.188 2.5a.563.563 0 0 1 .562-.562h6a.562.562 0 1 1 0 1.125h-6a.56.56 0 0 1-.562-.563m7.874 6.75a.563.563 0 0 1-.562.563h-6.89a3.197 3.197 0 0 0 4.36 2.384A3.1 3.1 0 0 0 19 11.5a.572.572 0 0 1 .922.182.55.55 0 0 1-.125.615 4.313 4.313 0 1 1 1.265-3.047m-1.171-.562a3.187 3.187 0 0 0-6.282 0zm-8.953 1.124a3.75 3.75 0 0 1-3.75 3.75H1A.563.563 0 0 1 .438 13V1A.563.563 0 0 1 1 .438h5.063a3.375 3.375 0 0 1 2.324 5.821 3.75 3.75 0 0 1 2.55 3.553m-9.375-3.75h4.5a2.25 2.25 0 1 0 0-4.5h-4.5zm8.25 3.75a2.634 2.634 0 0 0-2.626-2.624H1.564v5.25h5.625a2.634 2.634 0 0 0 2.625-2.626"/></symbol><use xlink:href="#sprite-s-behance" width="22" height="14" y="123"/><view id="sprite-s-behance-view" viewBox="0 123 22 14"/><symbol fill="currentColor" id="sprite-s-dribble" viewBox="0 0 20 20"><path d="M19.563 10.066V10a9.53 9.53 0 0 0-3.535-7.416l-.047-.046-.047-.038A9.5 9.5 0 0 0 10 .438a9.4 9.4 0 0 0-4.134.946l-.113.047A9.61 9.61 0 0 0 .625 8.116v.018A9.3 9.3 0 0 0 .438 10a9.55 9.55 0 0 0 3.834 7.65l.094.075h.018a9.53 9.53 0 0 0 8.794 1.294l.056-.019a9.59 9.59 0 0 0 6.329-8.916zm-1.144-.6a15.4 15.4 0 0 0-5.156.563A16.5 16.5 0 0 0 11.913 7l-.047-.066a15.8 15.8 0 0 0 3.825-3.159 8.4 8.4 0 0 1 2.728 5.69m-3.61-6.394a14.3 14.3 0 0 1-3.553 2.916 15.7 15.7 0 0 0-3.984-3.975 8.45 8.45 0 0 1 7.537 1.059m-8.775-.516a14.4 14.4 0 0 1 4.22 3.966 14.5 14.5 0 0 1-8.391 1.256 8.46 8.46 0 0 1 4.171-5.222M1.563 10q0-.56.075-1.116 1.174.174 2.362.179a15.5 15.5 0 0 0 6.872-1.594l.066.103a14.7 14.7 0 0 1 1.256 2.803 15 15 0 0 0-2.447 1.134 15.5 15.5 0 0 0-5.222 4.904A8.43 8.43 0 0 1 1.562 10m3.862 7.087a14.6 14.6 0 0 1 7.069-5.634c.27 1.111.405 2.25.403 3.394a14 14 0 0 1-.356 3.197 8.42 8.42 0 0 1-7.116-.957m8.372.45q.225-1.335.225-2.69a15.7 15.7 0 0 0-.45-3.74 14.6 14.6 0 0 1 4.847-.516 8.46 8.46 0 0 1-4.622 6.947"/></symbol><use xlink:href="#sprite-s-dribble" width="20" height="20" y="137"/><view id="sprite-s-dribble-view" viewBox="0 137 20 20"/><symbol fill="currentColor" id="sprite-s-facebook" viewBox="0 0 20 20"><path d="M19.563 10A9.562 9.562 0 1 0 10 19.563 9.57 9.57 0 0 0 19.563 10m-9 8.419v-6.357H13a.563.563 0 0 0 0-1.124h-2.437V8.5a1.697 1.697 0 0 1 1.687-1.687h1.5a.563.563 0 1 0 0-1.125h-1.5A2.82 2.82 0 0 0 9.438 8.5v2.438H7a.562.562 0 0 0 0 1.124h2.438v6.357a8.438 8.438 0 1 1 1.124 0"/></symbol><use xlink:href="#sprite-s-facebook" width="20" height="20" y="157"/><view id="sprite-s-facebook-view" viewBox="0 157 20 20"/><symbol fill="currentColor" id="sprite-s-instagram" viewBox="0 0 20 20"><path d="M10 5.688a4.312 4.312 0 1 0 0 8.624 4.312 4.312 0 0 0 0-8.624m0 7.5A3.187 3.187 0 1 1 13.188 10 3.197 3.197 0 0 1 10 13.188M14.125.813h-8.25A5.063 5.063 0 0 0 .813 5.875v8.25a5.06 5.06 0 0 0 5.062 5.063h8.25a5.06 5.06 0 0 0 5.063-5.063v-8.25A5.063 5.063 0 0 0 14.125.813m3.938 13.312a3.937 3.937 0 0 1-3.938 3.938h-8.25a3.937 3.937 0 0 1-3.937-3.938v-8.25a3.937 3.937 0 0 1 3.937-3.937h8.25a3.937 3.937 0 0 1 3.938 3.937zm-2.25-9a.938.938 0 1 1-1.876 0 .938.938 0 0 1 1.876 0"/></symbol><use xlink:href="#sprite-s-instagram" width="20" height="20" y="177"/><view id="sprite-s-instagram-view" viewBox="0 177 20 20"/><symbol fill="currentColor" id="sprite-s-pinterest" viewBox="0 0 18 20"><path d="M17.063 8.5c0 2.067-.722 3.955-2.033 5.319-1.219 1.267-2.87 1.993-4.53 1.993-1.82 0-2.958-.662-3.622-1.278l-1.08 4.594a.562.562 0 1 1-1.096-.256l3-12.75a.563.563 0 1 1 1.095.256l-1.602 6.81c.263.406 1.168 1.5 3.305 1.5 2.673 0 5.438-2.315 5.438-6.188A6.937 6.937 0 1 0 2.99 11.969a.563.563 0 1 1-.974.562A8.062 8.062 0 1 1 17.063 8.5"/></symbol><use xlink:href="#sprite-s-pinterest" width="18" height="20" y="197"/><view id="sprite-s-pinterest-view" viewBox="0 197 18 20"/><symbol fill="currentColor" id="sprite-s-tiktok" viewBox="0 0 20 21"><path d="M19 5.938a4.693 4.693 0 0 1-4.687-4.688.563.563 0 0 0-.563-.562H10a.563.563 0 0 0-.562.562v12.375A2.063 2.063 0 1 1 6.49 11.76a.56.56 0 0 0 .322-.508V7.25a.563.563 0 0 0-.657-.554c-3.262.58-5.718 3.559-5.718 6.929a6.938 6.938 0 0 0 13.875 0V9.587A9.5 9.5 0 0 0 19 10.813a.56.56 0 0 0 .563-.563V6.5A.563.563 0 0 0 19 5.938m-.562 3.73a8.36 8.36 0 0 1-4.36-1.564.562.562 0 0 0-.89.459v5.062a5.813 5.813 0 0 1-11.625 0c0-2.599 1.731-4.92 4.125-5.66v2.955a3.188 3.188 0 1 0 4.875 2.705V1.813h2.652a5.82 5.82 0 0 0 5.223 5.222z"/></symbol><use xlink:href="#sprite-s-tiktok" width="20" height="21" y="217"/><view id="sprite-s-tiktok-view" viewBox="0 217 20 21"/><symbol fill="currentColor" id="sprite-s-twitch" viewBox="0 0 18 21"><path d="M16.5.188h-15A1.31 1.31 0 0 0 .188 1.5V15A1.313 1.313 0 0 0 1.5 16.313h1.688V19.5a.562.562 0 0 0 .922.432l4.292-3.576a.2.2 0 0 1 .12-.044h3.956c.308.001.607-.107.844-.304l4.022-3.352a1.31 1.31 0 0 0 .468-1.008V1.5A1.313 1.313 0 0 0 16.5.188m.188 11.46a.2.2 0 0 1-.068.145l-4.022 3.351a.2.2 0 0 1-.12.043H8.522c-.308 0-.607.108-.844.305L4.313 18.3v-2.55a.56.56 0 0 0-.563-.562H1.5A.19.19 0 0 1 1.313 15V1.5a.187.187 0 0 1 .187-.187h15a.19.19 0 0 1 .188.187zM13.313 5.25v4.5a.562.562 0 1 1-1.126 0v-4.5a.563.563 0 0 1 1.126 0m-4.5 0v4.5a.562.562 0 1 1-1.126 0v-4.5a.563.563 0 1 1 1.125 0"/></symbol><use xlink:href="#sprite-s-twitch" width="18" height="21" y="238"/><view id="sprite-s-twitch-view" viewBox="0 238 18 21"/><symbol fill="currentColor" id="sprite-s-twitter" viewBox="0 0 22 19"><path d="M21.016 3.534a.56.56 0 0 0-.516-.346h-2.962a4.31 4.31 0 0 0-3.732-2.25A4.35 4.35 0 0 0 9.438 5.25v.816c-3.975-.947-7.257-4.182-7.294-4.21a.562.562 0 0 0-.947.29c-.816 4.463.525 7.445 1.79 9.16a9.9 9.9 0 0 0 2.438 2.353c-1.453 1.763-3.844 2.682-3.872 2.691a.55.55 0 0 0-.337.356.54.54 0 0 0 .065.478c.094.141 1.013 1.378 4.219 1.378 6.534 0 12-5.053 12.525-11.54l2.869-2.878a.53.53 0 0 0 .122-.61m-3.938 2.841a.54.54 0 0 0-.16.366c-.384 6-5.4 10.697-11.418 10.697-1.303 0-2.137-.226-2.634-.45 1.059-.535 2.793-1.585 3.853-3.179a.58.58 0 0 0 .075-.45.57.57 0 0 0-.29-.365c-.02 0-1.426-.732-2.645-2.4-1.453-1.988-2.025-4.416-1.706-7.219 1.369 1.163 4.322 3.356 7.753 3.928a.553.553 0 0 0 .656-.553v-1.5a3.216 3.216 0 0 1 3.226-3.187 3.21 3.21 0 0 1 2.887 1.912.55.55 0 0 0 .516.338h1.95z"/></symbol><use xlink:href="#sprite-s-twitter" width="22" height="19" y="259"/><view id="sprite-s-twitter-view" viewBox="0 259 22 19"/><symbol fill="currentColor" id="sprite-s-whatsapp" viewBox="0 0 20 20"><path d="m15.501 11.747-3-1.5a.56.56 0 0 0-.562.035l-1.47.98a4 4 0 0 1-1.73-1.73l.98-1.47a.56.56 0 0 0 .035-.562l-1.5-3a.56.56 0 0 0-.504-.312A3.56 3.56 0 0 0 4.188 7.75a8.07 8.07 0 0 0 8.062 8.063 3.56 3.56 0 0 0 3.563-3.563.56.56 0 0 0-.312-.503m-3.25 2.94A6.946 6.946 0 0 1 5.312 7.75a2.44 2.44 0 0 1 2.101-2.414L8.601 7.71l-.974 1.46a.56.56 0 0 0-.05.528 5.1 5.1 0 0 0 2.725 2.725.56.56 0 0 0 .528-.05l1.46-.974 2.374 1.187a2.44 2.44 0 0 1-2.414 2.101M10 .438a9.563 9.563 0 0 0-8.406 14.128L.506 17.834a1.313 1.313 0 0 0 1.66 1.66l3.27-1.09A9.563 9.563 0 1 0 10 .439m0 18a8.44 8.44 0 0 1-4.225-1.132.57.57 0 0 0-.46-.047L1.81 18.428a.188.188 0 0 1-.237-.237l1.168-3.501a.56.56 0 0 0-.047-.46A8.438 8.438 0 1 1 10 18.437"/></symbol><use xlink:href="#sprite-s-whatsapp" width="20" height="20" y="278"/><view id="sprite-s-whatsapp-view" viewBox="0 278 20 20"/><symbol fill="currentColor" id="sprite-s-youtube" viewBox="0 0 22 18"><path d="m14.312 8.531-4.5-3A.562.562 0 0 0 8.938 6v6a.563.563 0 0 0 .874.469l4.5-3a.563.563 0 0 0 0-.938m-4.25 2.418V7.051L12.987 9zm10.726-7.386a2.06 2.06 0 0 0-1.245-1.407C16.343.918 11.213.938 11 .938S5.656.918 2.454 2.156a2.06 2.06 0 0 0-1.242 1.407C.973 4.49.688 6.188.688 9s.285 4.51.525 5.438a2.06 2.06 0 0 0 1.245 1.406c3.198 1.238 8.328 1.219 8.542 1.219h.067c.647 0 5.437-.042 8.48-1.22a2.06 2.06 0 0 0 1.244-1.405c.24-.926.525-2.619.525-5.438s-.285-4.51-.528-5.437m-1.09 10.593a.94.94 0 0 1-.562.643c-3 1.156-8.082 1.139-8.136 1.139s-5.13.018-8.133-1.141a.94.94 0 0 1-.562-.644c-.226-.861-.493-2.455-.493-5.153s.267-4.292.49-5.156a.94.94 0 0 1 .562-.643c2.892-1.114 7.717-1.138 8.113-1.138H11c.05 0 5.13-.02 8.133 1.14a.94.94 0 0 1 .562.644c.223.861.49 2.455.49 5.156s-.264 4.289-.487 5.153"/></symbol><use xlink:href="#sprite-s-youtube" width="22" height="18" y="298"/><view id="sprite-s-youtube-view" viewBox="0 298 22 18"/></svg>