<svg width="96" height="23" viewBox="0 0 96 23" fill="none" xmlns="http://www.w3.org/2000/svg">
<path d="M0.450806 22.1875H21.8258V0.8125H0.450806V22.1875ZM17.7117 9.44333H13.195V4.92667H17.7117V9.44333ZM4.56414 4.92667H9.08332V13.5567H17.7117V18.0733H4.56414V4.92667ZM35.745 0.8125C33.6312 0.8125 31.5648 1.43932 29.8073 2.61367C28.0497 3.78803 26.6799 5.45719 25.871 7.41008C25.0621 9.363 24.8505 11.5118 25.2628 13.585C25.6752 15.6582 26.6931 17.5625 28.1877 19.0572C29.6824 20.5519 31.5867 21.5697 33.6599 21.9822C35.7332 22.3945 37.882 22.1829 39.8349 21.374C41.7878 20.5651 43.4569 19.1952 44.6313 17.4377C45.8057 15.6801 46.4325 13.6137 46.4325 11.5C46.4292 8.6665 45.3021 5.95003 43.2985 3.94646C41.2949 1.94288 38.5785 0.815808 35.745 0.8125ZM35.745 18.0733C34.4449 18.0733 33.174 17.6878 32.093 16.9655C31.0121 16.2432 30.1695 15.2167 29.672 14.0155C29.1745 12.8144 29.0443 11.4927 29.2979 10.2176C29.5516 8.9425 30.1777 7.77125 31.0969 6.85195C32.0162 5.93266 33.1875 5.30661 34.4626 5.05298C35.7377 4.79934 37.0593 4.92952 38.2605 5.42703C39.4616 5.92455 40.4882 6.76707 41.2105 7.84808C41.9328 8.929 42.3183 10.1999 42.3183 11.5C42.3157 13.2426 41.6222 14.913 40.3901 16.1452C39.1579 17.3773 37.4875 18.0707 35.745 18.0733ZM84.6775 0.8125C82.5633 0.812342 80.4972 1.43901 78.7396 2.61327C76.9819 3.78752 75.612 5.45662 74.8029 7.4095C73.9939 9.36233 73.7821 11.5113 74.1944 13.5845C74.6067 15.6577 75.6245 17.5622 77.1192 19.0569C78.6137 20.5517 80.5181 21.5697 82.5917 21.9821C84.6642 22.3945 86.8133 22.1829 88.7667 21.3741C90.7192 20.5652 92.3883 19.1953 93.5625 17.4377C94.7375 15.6802 95.3642 13.6138 95.3642 11.5C95.3608 8.66667 94.2342 5.9503 92.2308 3.94675C90.2275 1.94319 87.5108 0.816033 84.6775 0.8125ZM84.6775 18.0733C83.3775 18.0735 82.1067 17.6881 81.0253 16.9659C79.9442 16.2437 79.1016 15.2172 78.6039 14.0161C78.1062 12.815 77.976 11.4932 78.2295 10.2181C78.4831 8.943 79.1091 7.77167 80.0283 6.85225C80.9476 5.93287 82.1192 5.30673 83.3942 5.05303C84.6692 4.79933 85.9908 4.92946 87.1917 5.42696C88.3933 5.92445 89.42 6.76697 90.1425 7.848C90.8642 8.929 91.25 10.1999 91.25 11.5C91.2475 13.2424 90.5542 14.9127 89.3217 16.1448C88.09 17.377 86.42 18.0705 84.6775 18.0733ZM60.2108 0.8125C58.097 0.8125 56.0307 1.43932 54.2732 2.61367C52.5156 3.78803 51.1457 5.45719 50.3368 7.41008C49.5279 9.363 49.3163 11.5118 49.7287 13.585C50.1411 15.6582 51.1589 17.5625 52.6536 19.0572C54.1482 20.5519 56.0526 21.5697 58.1257 21.9822C60.1989 22.3945 62.3478 22.1829 64.3007 21.374C66.2537 20.5651 67.9227 19.1952 69.0972 17.4377C70.2715 15.6801 70.8983 13.6137 70.8983 11.5C70.895 8.6665 69.7679 5.95003 67.7643 3.94646C65.7607 1.94288 63.0443 0.815808 60.2108 0.8125ZM60.2108 18.0733C58.9995 18.0739 57.8117 17.7398 56.7782 17.1079C55.7449 16.476 54.9062 15.5709 54.3547 14.4924C53.8034 13.4139 53.5607 12.204 53.6535 10.9963C53.7463 9.78858 54.171 8.63 54.8807 7.64842C55.5905 6.66688 56.5577 5.90051 57.6754 5.43393C58.7932 4.96733 60.0182 4.81868 61.2152 5.00437C62.4122 5.19006 63.5345 5.70286 64.4584 6.48618C65.3823 7.2695 66.0718 8.29292 66.4508 9.44333H60.2108V13.5567H66.4508C66.0167 14.8694 65.1804 16.0123 64.0603 16.8229C62.9403 17.6337 61.5935 18.0711 60.2108 18.0733Z" fill="#DAC5A7"/>
</svg>
