<svg width="141" height="31" viewBox="0 0 141 31" fill="none" xmlns="http://www.w3.org/2000/svg">
<path d="M23.1614 13.871C22.7824 14.2523 22.4922 14.7125 22.3114 15.2187C22.1306 15.725 22.0637 16.2649 22.1154 16.8L22.0974 16.782C22.1506 17.4119 22.0656 18.0457 21.8485 18.6394C21.6314 19.233 21.2874 19.7721 20.8405 20.2191C20.3935 20.666 19.8544 21.0101 19.2607 21.2271C18.6671 21.4442 18.0332 21.5292 17.4034 21.476L17.4214 21.494C16.668 21.4239 15.9113 21.5878 15.2544 21.9635C14.5976 22.3392 14.0726 22.9083 13.7511 23.5933C13.4296 24.2783 13.3271 25.0457 13.4577 25.7911C13.5884 26.5364 13.9457 27.2233 14.481 27.7581C15.0163 28.2929 15.7035 28.6496 16.4489 28.7795C17.1944 28.9095 17.9617 28.8063 18.6464 28.4842C19.3311 28.162 19.8997 27.6366 20.2748 26.9794C20.6499 26.3222 20.8132 25.5654 20.7424 24.812L20.7614 24.83C20.7082 24.2002 20.7931 23.5663 21.0102 22.9726C21.2273 22.379 21.5714 21.8399 22.0183 21.3929C22.4653 20.946 23.0044 20.6019 23.598 20.3849C24.1917 20.1678 24.8255 20.0828 25.4554 20.136L25.4364 20.118C26.0518 20.1733 26.6713 20.0724 27.2374 19.8246C27.8034 19.5768 28.2978 19.1901 28.6746 18.7004C29.0514 18.2107 29.2986 17.6337 29.393 17.0231C29.4875 16.4124 29.4263 15.7878 29.2151 15.207C29.0039 14.6263 28.6495 14.1083 28.1848 13.701C27.7201 13.2937 27.1601 13.0103 26.5567 12.8771C25.9533 12.7439 25.326 12.7651 24.733 12.9388C24.14 13.1126 23.6005 13.4332 23.1644 13.871H23.1614Z" fill="#DAC5A7"/>
<path d="M15.7844 19.136L15.7654 19.118C16.3007 19.1719 16.8413 19.1062 17.3482 18.9256C17.855 18.745 18.3154 18.4541 18.696 18.0738C19.0765 17.6935 19.3679 17.2333 19.5488 16.7266C19.7298 16.2199 19.7959 15.6794 19.7424 15.144L19.7614 15.162C19.7082 14.5321 19.7932 13.8983 20.0102 13.3046C20.2273 12.711 20.5714 12.1719 21.0183 11.7249C21.4653 11.278 22.0044 10.9339 22.598 10.7169C23.1917 10.4998 23.8255 10.4148 24.4554 10.468L24.4364 10.45C25.1899 10.5208 25.9468 10.3574 26.604 9.9821C27.2613 9.60684 27.7867 9.03797 28.1087 8.3531C28.4307 7.66824 28.5336 6.90071 28.4034 6.1552C28.2732 5.40969 27.9162 4.72251 27.381 4.18737C26.8459 3.65224 26.1587 3.2952 25.4132 3.16498C24.6677 3.03475 23.9002 3.13766 23.2153 3.45968C22.5304 3.78169 21.9616 4.30714 21.5863 4.96435C21.211 5.62155 21.0476 6.37852 21.1184 7.132L21.1004 7.113C21.1537 7.74289 21.0689 8.37683 20.8519 8.97055C20.6349 9.56427 20.2908 10.1035 19.8439 10.5505C19.3969 10.9974 18.8577 11.3415 18.264 11.5585C17.6702 11.7755 17.0363 11.8603 16.4064 11.807L16.4244 11.826C15.8891 11.7721 15.3484 11.8378 14.8416 12.0184C14.3348 12.1989 13.8744 12.4899 13.4938 12.8702C13.1132 13.2505 12.8219 13.7107 12.6409 14.2174C12.46 14.7241 12.3939 15.2646 12.4474 15.8L12.4294 15.782C12.4824 16.4118 12.3973 17.0456 12.1802 17.6392C11.963 18.2327 11.619 18.7718 11.1721 19.2187C10.7252 19.6656 10.1861 20.0096 9.59256 20.2268C8.999 20.4439 8.36521 20.529 7.7354 20.476L7.7534 20.494C6.99992 20.4232 6.24295 20.5866 5.58574 20.9619C4.92854 21.3372 4.40309 21.906 4.08108 22.5909C3.75906 23.2758 3.65614 24.0433 3.78637 24.7888C3.9166 25.5343 4.27364 26.2215 4.80877 26.7566C5.34391 27.2918 6.03109 27.6488 6.7766 27.779C7.52211 27.9092 8.28964 27.8063 8.97451 27.4843C9.65937 27.1623 10.2282 26.6369 10.6035 25.9797C10.9788 25.3224 11.1422 24.5655 11.0714 23.812L11.0904 23.83C11.0372 23.2001 11.1222 22.5663 11.3393 21.9726C11.5563 21.379 11.9004 20.8399 12.3473 20.3929C12.7943 19.946 13.3334 19.6019 13.927 19.3849C14.5207 19.1678 15.1545 19.0828 15.7844 19.136Z" fill="#DAC5A7"/>
<path d="M9.08246 17.1289C9.46148 16.7477 9.75166 16.2875 9.9323 15.7812C10.1129 15.2749 10.1796 14.7349 10.1275 14.1999L10.1465 14.2179C10.0933 13.5879 10.1782 12.9538 10.3954 12.36C10.6126 11.7662 10.9569 11.227 11.4041 10.78C11.8513 10.3331 12.3906 9.98907 12.9845 9.77212C13.5784 9.55516 14.2125 9.47046 14.8425 9.52394L14.8235 9.50594C15.5767 9.57651 16.3334 9.41302 16.9903 9.03778C17.6472 8.66255 18.1723 8.09382 18.4942 7.40917C18.816 6.72451 18.9188 5.95726 18.7886 5.21203C18.6584 4.4668 18.3014 3.77988 17.7665 3.24494C17.2316 2.71 16.5446 2.35308 15.7994 2.22286C15.0542 2.09263 14.2869 2.19545 13.6023 2.51727C12.9176 2.83909 12.3489 3.36426 11.9737 4.02116C11.5984 4.67806 11.4349 5.43472 11.5055 6.18794L11.4875 6.16994C11.5407 6.79979 11.4557 7.43366 11.2386 8.0273C11.0215 8.62094 10.6775 9.16005 10.2305 9.60701C9.78357 10.054 9.24445 10.398 8.65081 10.615C8.05717 10.8321 7.42331 10.9171 6.79346 10.8639L6.81146 10.8819C6.19603 10.8267 5.57662 10.9278 5.01064 11.1757C4.44466 11.4236 3.95041 11.8104 3.5737 12.3002C3.19699 12.7899 2.95001 13.3669 2.85563 13.9775C2.76126 14.5882 2.82255 15.2128 3.03382 15.7934C3.24509 16.3741 3.59952 16.892 4.06425 17.2992C4.52898 17.7065 5.08898 17.9898 5.69236 18.123C6.29573 18.2561 6.92296 18.2348 7.51593 18.0611C8.10889 17.8873 8.64839 17.5667 9.08445 17.1289H9.08246Z" fill="#DAC5A7"/>
<path d="M40.0594 7.15503H43.0294V21.608H40.0594V7.15503Z" fill="#DAC5A7"/>
<path d="M44.7114 16.659C44.7073 15.6204 45.0115 14.6038 45.5855 13.7382C46.1595 12.8726 46.9775 12.1968 47.9359 11.7965C48.8943 11.3961 49.9499 11.2892 50.9691 11.4893C51.9883 11.6894 52.9252 12.1874 53.6611 12.9204C54.397 13.6533 54.8988 14.5882 55.103 15.6066C55.3072 16.625 55.2045 17.6811 54.808 18.6411C54.4115 19.601 53.739 20.4218 52.8757 20.9992C52.0123 21.5767 50.9971 21.885 49.9584 21.885C49.269 21.8929 48.5849 21.7632 47.9461 21.5036C47.3073 21.244 46.7267 20.8597 46.2382 20.3732C45.7496 19.8866 45.363 19.3075 45.1009 18.6698C44.8387 18.0321 44.7063 17.3485 44.7114 16.659ZM52.2354 16.659C52.223 16.2113 52.0789 15.7772 51.8212 15.4109C51.5634 15.0447 51.2034 14.7625 50.7862 14.5998C50.3689 14.437 49.913 14.4008 49.4753 14.4958C49.0376 14.5908 48.6376 14.8126 48.3253 15.1337C48.0131 15.4547 47.8023 15.8607 47.7196 16.3009C47.6368 16.741 47.6855 17.1958 47.8598 17.6084C48.0341 18.021 48.3261 18.373 48.6993 18.6205C49.0726 18.868 49.5106 19 49.9584 19C50.2651 19.0082 50.5702 18.9527 50.8545 18.8371C51.1387 18.7215 51.3959 18.5483 51.6098 18.3284C51.8237 18.1084 51.9898 17.8465 52.0974 17.5592C52.2051 17.2719 52.2521 16.9654 52.2354 16.659Z" fill="#DAC5A7"/>
<path d="M67.0425 11.7091V21.1091C67.0425 24.4351 64.4485 25.8411 61.8155 25.8411C60.8885 25.9105 59.9602 25.7232 59.1325 25.2999C58.3049 24.8765 57.6098 24.2334 57.1235 23.4411L59.6575 21.9761C59.8619 22.3891 60.1876 22.7298 60.5909 22.9527C60.9943 23.1755 61.4561 23.2699 61.9145 23.2231C62.2075 23.2637 62.5059 23.2379 62.7876 23.1476C63.0692 23.0573 63.327 22.9048 63.5418 22.7015C63.7566 22.4981 63.9229 22.2491 64.0285 21.9727C64.134 21.6964 64.176 21.3999 64.1515 21.1051V20.2001C63.8037 20.6256 63.3611 20.9637 62.859 21.1872C62.3569 21.4107 61.8095 21.5134 61.2605 21.4871C59.9543 21.4459 58.7154 20.8981 57.806 19.9595C56.8966 19.021 56.3881 17.7654 56.3881 16.4586C56.3881 15.1518 56.8966 13.8962 57.806 12.9577C58.7154 12.0191 59.9543 11.4713 61.2605 11.4301C61.8095 11.4038 62.3569 11.5065 62.859 11.73C63.3611 11.9535 63.8037 12.2916 64.1515 12.7171V11.7071L67.0425 11.7091ZM64.1525 16.4601C64.1725 15.9815 64.0487 15.5078 63.7972 15.1001C63.5457 14.6923 63.1779 14.3692 62.7412 14.1723C62.3045 13.9753 61.8189 13.9136 61.3468 13.995C60.8747 14.0764 60.4378 14.2972 60.0922 14.6291C59.7467 14.9609 59.5084 15.3885 59.4079 15.8569C59.3075 16.3253 59.3495 16.8131 59.5287 17.2574C59.7078 17.7017 60.0158 18.0823 60.413 18.3501C60.8102 18.6179 61.2785 18.7607 61.7575 18.7601C62.0696 18.7819 62.3827 18.7381 62.6768 18.6315C62.9709 18.5249 63.2394 18.3578 63.465 18.1412C63.6906 17.9245 63.8684 17.663 63.9868 17.3734C64.1052 17.0839 64.1617 16.7728 64.1525 16.4601Z" fill="#DAC5A7"/>
<path d="M68.7244 16.659C68.7203 15.6204 69.0244 14.6038 69.5985 13.7382C70.1725 12.8726 70.9905 12.1968 71.9489 11.7965C72.9073 11.3961 73.9629 11.2892 74.9821 11.4893C76.0013 11.6894 76.9382 12.1874 77.6741 12.9204C78.41 13.6533 78.9118 14.5882 79.116 15.6066C79.3202 16.625 79.2175 17.6811 78.821 18.6411C78.4245 19.601 77.752 20.4218 76.8887 20.9992C76.0253 21.5767 75.0101 21.885 73.9714 21.885C73.282 21.8929 72.5978 21.7632 71.9591 21.5036C71.3203 21.244 70.7397 20.8597 70.2512 20.3732C69.7626 19.8866 69.376 19.3075 69.1139 18.6698C68.8517 18.0321 68.7193 17.3485 68.7244 16.659ZM76.2484 16.659C76.236 16.2113 76.0919 15.7772 75.8342 15.4109C75.5764 15.0447 75.2164 14.7625 74.7992 14.5998C74.3819 14.437 73.9259 14.4008 73.4883 14.4958C73.0506 14.5908 72.6506 14.8126 72.3383 15.1337C72.0261 15.4547 71.8153 15.8607 71.7325 16.3009C71.6497 16.741 71.6985 17.1958 71.8728 17.6084C72.0471 18.021 72.3391 18.373 72.7123 18.6205C73.0856 18.868 73.5235 19 73.9714 19C74.2781 19.0082 74.5832 18.9527 74.8674 18.8371C75.1517 18.7215 75.4089 18.5483 75.6228 18.3284C75.8367 18.1084 76.0028 17.8465 76.1104 17.5592C76.2181 17.2719 76.2651 16.9654 76.2484 16.659Z" fill="#DAC5A7"/>
<path d="M80.6035 9.05605C80.6035 8.7036 80.708 8.35907 80.9038 8.06603C81.0996 7.77298 81.378 7.54457 81.7036 7.4097C82.0292 7.27482 82.3875 7.23953 82.7332 7.30829C83.0788 7.37705 83.3964 7.54677 83.6456 7.79599C83.8948 8.0452 84.0645 8.36272 84.1333 8.7084C84.202 9.05407 84.1667 9.41237 84.0319 9.73799C83.897 10.0636 83.6686 10.3419 83.3755 10.5377C83.0825 10.7335 82.738 10.8381 82.3855 10.8381C81.9144 10.8334 81.4638 10.6441 81.1306 10.3109C80.7975 9.97775 80.6082 9.52721 80.6035 9.05605ZM80.9035 11.709H83.8745V21.609H80.8995L80.9035 11.709Z" fill="#DAC5A7"/>
<path d="M96.6984 16.659C96.7327 17.3133 96.6374 17.9679 96.4178 18.5852C96.1983 19.2025 95.8589 19.7703 95.4191 20.256C94.9794 20.7416 94.4479 21.1356 93.8554 21.4152C93.2628 21.6947 92.6209 21.8544 91.9664 21.885C91.416 21.915 90.8659 21.8222 90.3558 21.6133C89.8457 21.4043 89.3886 21.0845 89.0174 20.677V25.568H86.0474V11.709H89.0174V12.639C89.3887 12.2318 89.846 11.9122 90.356 11.7035C90.8661 11.4947 91.4161 11.402 91.9664 11.432C92.621 11.4625 93.2631 11.6221 93.8558 11.9017C94.4485 12.1813 94.98 12.5753 95.4198 13.0611C95.8596 13.5469 96.199 14.1149 96.4184 14.7324C96.6378 15.3498 96.733 16.0046 96.6984 16.659ZM93.7284 16.659C93.7168 16.1957 93.5688 15.7461 93.3029 15.3664C93.037 14.9868 92.6651 14.694 92.2337 14.5248C91.8022 14.3555 91.3304 14.3172 90.8773 14.4148C90.4242 14.5123 90.01 14.7413 89.6864 15.0731C89.3628 15.405 89.1443 15.8248 89.0582 16.2803C88.9721 16.7357 89.0222 17.2063 89.2023 17.6334C89.3823 18.0605 89.6844 18.4249 90.0706 18.6812C90.4568 18.9374 90.9099 19.0741 91.3734 19.074C91.6916 19.0882 92.0092 19.0349 92.3054 18.9177C92.6015 18.8006 92.8696 18.6221 93.0919 18.3941C93.3143 18.166 93.4859 17.8936 93.5956 17.5946C93.7053 17.2956 93.7506 16.9767 93.7284 16.659Z" fill="#DAC5A7"/>
<path d="M105.863 18.638C105.863 20.915 103.884 21.885 101.746 21.885C100.882 21.9632 100.015 21.7806 99.2562 21.3605C98.4973 20.9405 97.8819 20.3025 97.4894 19.529L100.062 18.064C100.167 18.4215 100.39 18.7326 100.696 18.9451C101.001 19.1577 101.371 19.259 101.742 19.232C102.454 19.232 102.811 19.014 102.811 18.619C102.811 17.529 97.9404 18.104 97.9404 14.679C97.9404 12.52 99.7624 11.432 101.821 11.432C102.595 11.4075 103.361 11.5911 104.04 11.9636C104.719 12.3362 105.286 12.884 105.681 13.55L103.147 14.916C103.036 14.6567 102.851 14.4358 102.615 14.2809C102.379 14.126 102.103 14.044 101.821 14.045C101.306 14.045 100.989 14.245 100.989 14.599C100.993 15.728 105.863 14.975 105.863 18.638Z" fill="#DAC5A7"/>
<path d="M116.712 11.709V21.609H113.742V20.678C113.399 21.0888 112.964 21.4125 112.472 21.6225C111.98 21.8325 111.446 21.9228 110.912 21.886C108.912 21.886 107.212 20.461 107.212 17.786V11.709H110.182V17.351C110.157 17.5868 110.184 17.8252 110.261 18.0495C110.337 18.2739 110.462 18.4789 110.626 18.6502C110.79 18.8215 110.989 18.955 111.21 19.0415C111.43 19.128 111.667 19.1654 111.904 19.151C112.993 19.151 113.745 18.518 113.745 17.112V11.712L116.712 11.709Z" fill="#DAC5A7"/>
<path d="M133.742 15.53V21.608H130.772V15.787C130.772 14.797 130.297 14.164 129.347 14.164C128.357 14.164 127.802 14.857 127.802 16.025V21.608H124.833V15.787C124.833 14.797 124.358 14.164 123.407 14.164C122.417 14.164 121.863 14.857 121.863 16.025V21.608H118.893V11.708H121.863V12.618C122.171 12.2143 122.575 11.8941 123.038 11.6868C123.502 11.4794 124.01 11.3915 124.516 11.431C125.024 11.4061 125.53 11.5134 125.985 11.7423C126.439 11.9711 126.826 12.3139 127.109 12.737C127.438 12.2943 127.874 11.9423 128.376 11.7139C128.878 11.4855 129.43 11.3882 129.98 11.431C132.253 11.432 133.742 13.055 133.742 15.53Z" fill="#DAC5A7"/>
<path d="M136.254 11.648C137.471 11.648 138.458 10.6612 138.458 9.44399C138.458 8.22675 137.471 7.23999 136.254 7.23999C135.037 7.23999 134.05 8.22675 134.05 9.44399C134.05 10.6612 135.037 11.648 136.254 11.648Z" fill="#DAC5A7"/>
</svg>
