<svg width="53" height="35" viewBox="0 0 53 35" fill="none" xmlns="http://www.w3.org/2000/svg">
<g clip-path="url(#clip0_1301_3337)">
<path d="M49.5369 1.09375C49.5369 1.69781 50.0266 2.1875 50.6307 2.1875H51.7244C52.3285 2.1875 52.8182 1.69781 52.8182 1.09375C52.8182 0.489689 52.3285 0 51.7244 0H50.6307C50.0266 0 49.5369 0.489689 49.5369 1.09375Z" fill="#DAC5A7"/>
<path d="M17.8182 35H23.1314L21.5846 33.4532C21.1744 33.043 20.618 32.8125 20.0379 32.8125H17.8182C9.3613 32.8125 2.50568 25.9569 2.50568 17.5C2.50568 9.04313 9.3613 2.18751 17.8182 2.1875H35.3182C43.7751 2.1875 50.6307 9.04313 50.6307 17.5C50.6307 25.9569 43.7751 32.8125 35.3182 32.8125H28.7718C27.9015 32.8125 27.0669 32.4668 26.4515 31.8515L24.6394 30.0393C23.6138 29.0137 22.2228 28.4375 20.7724 28.4375H17.8182C11.7775 28.4375 6.88068 23.5406 6.88068 17.5C6.88068 11.4593 11.7775 6.5625 17.8182 6.5625H35.3182C41.3588 6.5625 46.2557 11.4593 46.2557 17.5C46.2557 23.5406 41.3588 28.4375 35.3182 28.4375H31.1148C30.2445 28.4375 29.4099 28.0918 28.7945 27.4765L26.9823 25.6643C25.9567 24.6387 24.5657 24.0625 23.1153 24.0625H17.8182C14.1938 24.0625 11.2557 21.1243 11.2557 17.5C11.2557 13.8757 14.1938 10.9375 17.8182 10.9375H35.3182C38.9425 10.9375 41.8807 13.8757 41.8807 17.5C41.8807 21.0802 39.0137 23.9908 35.4505 24.0612L35.4498 24.0625H33.8491C32.9789 24.0625 32.1443 23.7168 31.5289 23.1015L29.7167 21.2893C28.8752 20.4477 27.7877 19.9088 26.6231 19.7424L26.5682 19.6875H17.8182C16.6101 19.6875 15.6307 18.7081 15.6307 17.5C15.6307 16.2919 16.6101 15.3125 17.8182 15.3125H35.3182C36.5263 15.3125 37.5057 16.2919 37.5057 17.5C37.5057 18.7081 36.5263 19.6875 35.3182 19.6875H30.9432L32.49 21.2343C32.9002 21.6445 33.4566 21.875 34.0367 21.875H35.3182C37.7344 21.875 39.6932 19.9162 39.6932 17.5C39.6932 15.0838 37.7344 13.125 35.3182 13.125H17.8182C15.402 13.125 13.4432 15.0838 13.4432 17.5C13.4432 19.9162 15.402 21.875 17.8182 21.875H25.8497C26.72 21.875 27.5546 22.2207 28.17 22.836L29.9822 24.6482C31.0077 25.6738 32.3987 26.25 33.8491 26.25H35.8651V26.2332C40.4428 25.9509 44.0682 22.1488 44.0682 17.5C44.0682 12.6676 40.1506 8.75 35.3182 8.75H17.8182C12.9857 8.75 9.06818 12.6676 9.06818 17.5C9.06818 22.3325 12.9857 26.25 17.8182 26.25H23.1153C23.9856 26.25 24.8202 26.5957 25.4356 27.211L27.2478 29.0232C28.2734 30.0488 29.6644 30.625 31.1148 30.625H35.3182C42.5669 30.625 48.4432 24.7488 48.4432 17.5C48.4432 10.2512 42.5669 4.375 35.3182 4.375H17.8182C10.5694 4.375 4.69318 10.2512 4.69318 17.5C4.69318 24.7488 10.5694 30.625 17.8182 30.625H20.7724C21.6426 30.625 22.4772 30.9707 23.0926 31.586L24.9048 33.3982C25.9304 34.4238 27.3214 35 28.7718 35H35.3182C44.9832 35 52.8182 27.165 52.8182 17.5C52.8182 7.83501 44.9832 -8.44939e-07 35.3182 0L17.8182 3.61606e-06C8.15319 4.461e-06 0.318175 7.83502 0.318176 17.5C0.318177 27.165 8.1532 35 17.8182 35Z" fill="#DAC5A7"/>
</g>
<defs>
<clipPath id="clip0_1301_3337">
<rect width="52.5" height="35" fill="white" transform="translate(0.318176)"/>
</clipPath>
</defs>
</svg>
